<?xml version="1.0" encoding="iso-8859-1"?>
<!-- Generator: Adobe Illustrator 19.0.0, SVG Export Plug-In . SVG Version: 6.00 Build 0)  -->
<svg version="1.1" id="Layer_1" xmlns="http://www.w3.org/2000/svg" xmlns:xlink="http://www.w3.org/1999/xlink" x="0px" y="0px"
	 viewBox="0 0 512 512" style="enable-background:new 0 0 512 512;" xml:space="preserve">
<path style="fill:#F8E4C5;" d="M328.59,128.578H77.209v277.881c0,7.555,6.124,13.678,13.678,13.678h224.024
	c7.555,0,13.678-6.124,13.678-13.678V128.578z"/>
<path style="fill:#FF496A;" d="M328.59,363.207H77.209v43.252c0,7.555,6.124,13.678,13.678,13.678h224.024
	c7.555,0,13.678-6.124,13.678-13.678V363.207z"/>
<g style="opacity:0.1;">
	<rect x="194.895" y="363.21" width="16.006" height="56.927"/>
	<rect x="124.758" y="363.21" width="16.006" height="56.927"/>
	<rect x="265.031" y="363.21" width="16.006" height="56.927"/>
</g>
<path style="opacity:0.1;enable-background:new    ;" d="M77.209,128.578v84.166c6.081,1.337,12.39,2.063,18.873,2.063
	c20.114,0,38.629-6.802,53.409-18.209c14.78,11.407,33.295,18.209,53.409,18.209s38.629-6.802,53.409-18.209
	c14.78,11.407,33.295,18.209,53.409,18.209c6.482,0,12.792-0.726,18.873-2.063v-84.166H77.209z"/>
<path style="opacity:0.1;enable-background:new    ;" d="M328.59,208.197v-46.337l-84.793,84.793
	c-12.886,12.886-12.886,33.777,0,46.663l0,0c4.972,4.972,4.972,13.035,0,18.007L134.982,420.137h69.994l73.818-73.818
	c4.972-4.972,13.035-4.972,18.007,0l0,0c8.614,8.614,20.803,11.461,31.789,8.558V238.356l-3.415,3.415
	c-4.165,4.165-10.916,4.165-15.08,0c-4.165-4.165-4.165-10.916,0-15.08L328.59,208.197z"/>
<path style="fill:#F8E4C5;" d="M309.717,8.003c-20.114,0-38.629,6.802-53.409,18.209c-14.781-11.407-33.295-18.209-53.41-18.209
	c-20.114,0-38.629,6.802-53.409,18.209C134.71,14.805,116.195,8.003,96.081,8.003c-48.334,0-87.516,39.182-87.516,87.515
	s39.182,87.515,87.515,87.515c20.114,0,38.629-6.802,53.409-18.209c14.78,11.407,33.295,18.209,53.409,18.209
	s38.629-6.802,53.409-18.209c14.78,11.407,33.295,18.209,53.409,18.209c48.334,0,87.515-39.183,87.515-87.515
	C397.233,47.185,358.051,8.003,309.717,8.003z"/>
<path style="fill:#B7B9BC;" d="M475.479,188.409l-79.516,79.516c-4.165,4.165-10.916,4.165-15.08,0l0,0
	c-4.165-4.165-4.165-10.916,0-15.08l79.516-79.516c6.398-6.398,6.398-16.771,0-23.169l0,0c-6.398-6.398-16.771-6.398-23.169,0
	l-79.516,79.516c-4.165,4.165-10.916,4.165-15.08,0l0,0c-4.164-4.165-4.164-10.916,0-15.08l79.516-79.516
	c6.398-6.398,6.398-16.771,0-23.169l0,0c-6.398-6.398-16.771-6.398-23.169,0L276.334,234.557c-12.886,12.886-12.886,33.777,0,46.663
	l0,0c4.972,4.972,4.972,13.035,0,18.007l-162.54,162.54c-9.664,9.664-9.664,25.333,0,34.997l0,0c9.664,9.664,25.333,9.664,34.997,0
	l162.54-162.54c4.972-4.972,13.035-4.972,18.007,0l0,0c12.886,12.886,33.777,12.886,46.663,0l122.646-122.646
	c6.398-6.398,6.398-16.771,0-23.169l0,0C492.25,182.011,481.877,182.011,475.479,188.409z"/>
<g>
	<path style="opacity:0.2;fill:#FFFFFF;enable-background:new    ;" d="M391.898,293.388c-17.514,0-31.712,14.198-31.712,31.712
		c0,6.036,1.687,11.678,4.614,16.48c4.079-1.61,7.904-4.058,11.202-7.356l34.675-34.675
		C405.42,295.679,398.927,293.388,391.898,293.388z"/>
	<path style="opacity:0.2;fill:#FFFFFF;enable-background:new    ;" d="M405.048,108.086c-1.036,2.415-1.612,5.074-1.612,7.868
		c0,10.355,7.881,18.866,17.971,19.869l0.743-0.743c6.398-6.398,6.398-16.771,0-23.169
		C417.524,107.286,410.825,106.022,405.048,108.086z M498.648,188.409c-3.189-3.189-7.366-4.787-11.545-4.796
		c-3.683,3.623-5.969,8.661-5.969,14.235c0,8.449,5.249,15.666,12.661,18.584l4.854-4.853
		C505.046,205.18,505.046,194.807,498.648,188.409z M449.404,145.39c-3.718,3.627-6.03,8.689-6.03,14.293
		c0,8.292,5.055,15.402,12.25,18.421l4.775-4.775c6.398-6.398,6.398-16.771,0-23.169C457.35,147.111,453.398,145.533,449.404,145.39
		z"/>
</g>
<path d="M504.306,182.75c-9.507-9.505-24.978-9.505-34.486,0l0,0l-79.515,79.517c-1.037,1.037-2.725,1.038-3.762,0.001
	c-0.679-0.679-0.78-1.47-0.78-1.882c0-0.412,0.101-1.204,0.78-1.881l79.515-79.516c9.508-9.508,9.508-24.979,0.001-34.487
	c-4.605-4.606-10.73-7.143-17.243-7.143c-6.513,0-12.638,2.536-17.243,7.142l-79.517,79.516c-0.678,0.679-1.469,0.779-1.88,0.779
	c-0.412,0-1.203-0.101-1.882-0.78c-0.678-0.678-0.779-1.469-0.779-1.881s0.101-1.204,0.779-1.881l79.516-79.516
	c9.508-9.508,9.508-24.978,0-34.487c-6.143-6.144-14.772-8.292-22.679-6.496c0.063-1.413,0.106-2.826,0.106-4.238
	C405.236,42.849,362.386,0,309.717,0c-19.268,0-37.609,5.629-53.409,16.337C240.508,5.629,222.167,0,202.9,0
	c-19.269,0-37.609,5.629-53.41,16.337C133.69,5.629,115.349,0,96.081,0C43.411,0,0.562,42.849,0.562,95.518
	c0,43.341,29.018,80.026,68.644,91.664v219.277c0,11.955,9.726,21.681,21.681,21.681h45.216l-27.968,27.968
	c-12.767,12.769-12.767,33.546,0.001,46.315c6.384,6.383,14.771,9.577,23.157,9.577c8.387,0,16.773-3.193,23.158-9.577
	l74.283-74.283h86.177c11.955,0,21.681-9.726,21.681-21.681v-57.836c5.017,2.139,10.46,3.269,16.078,3.269
	c10.951,0,21.247-4.265,28.99-12.008l122.646-122.646C513.815,207.729,513.815,192.258,504.306,182.75z M83.024,173.94
	c-1.307-0.218-2.61-0.467-3.908-0.75c-35.718-7.796-62.549-39.652-62.549-77.673c0-43.843,35.669-79.512,79.514-79.512
	c17.719,0,34.497,5.719,48.519,16.541c2.88,2.224,6.898,2.224,9.778,0c14.022-10.822,30.8-16.541,48.52-16.541
	c17.719,0,34.497,5.719,48.519,16.541c2.88,2.224,6.898,2.224,9.778,0c14.022-10.822,30.8-16.541,48.519-16.541
	c43.844,0,79.514,35.669,79.514,79.513c0,5.544-0.591,11.112-1.755,16.581l-61.178,61.178c-5.47,1.163-11.036,1.755-16.581,1.755
	c-17.719,0-34.497-5.719-48.519-16.541c-2.88-2.224-6.898-2.224-9.778,0c-14.023,10.822-30.8,16.541-48.519,16.541
	c-17.72,0-34.497-5.719-48.52-16.541c-2.88-2.224-6.898-2.224-9.778,0c-14.022,10.822-30.8,16.541-48.519,16.541
	c-1.419,0-2.84-0.039-4.263-0.117c-0.105-0.005-0.208-0.018-0.314-0.023c-1.333-0.078-2.667-0.184-3.999-0.329
	c-0.044-0.004-0.087-0.012-0.131-0.017c-1.38-0.153-2.757-0.34-4.131-0.564C83.17,173.968,83.098,173.953,83.024,173.94z
	 M90.887,412.135c-3.13,0-5.676-2.547-5.676-5.676V190.414c1.753,0.2,3.52,0.352,5.3,0.456c0.064,0.004,0.128,0.009,0.191,0.012
	c0.777,0.044,1.556,0.077,2.336,0.101c0.132,0.004,0.265,0.012,0.397,0.015c0.879,0.025,1.761,0.038,2.645,0.038
	c19.269,0,37.609-5.629,53.409-16.337c15.801,10.708,34.141,16.337,53.41,16.337c19.268,0,37.609-5.629,53.409-16.337
	c15.483,10.492,33.407,16.094,52.251,16.316l-37.882,37.882c-7.744,7.745-12.008,18.039-12.008,28.99
	c0,10.952,4.265,21.247,12.008,28.991c1.845,1.845,1.845,4.844,0,6.689L152.11,412.135H90.887z M320.587,406.459
	c0,3.13-2.546,5.676-5.676,5.676h-70.172l72.251-72.251c0.986-0.986,2.303-1.428,3.597-1.359v67.935H320.587z M492.989,205.92
	L370.344,328.565c-9.745,9.745-25.6,9.745-35.346,0c-8.085-8.084-21.239-8.084-29.324,0l-162.541,162.54
	c-6.528,6.528-17.151,6.529-23.679,0.001c-6.528-6.529-6.528-17.152,0-23.68l162.54-162.539c8.085-8.085,8.085-21.241,0-29.325
	c-9.744-9.744-9.744-25.6,0-35.345L404.64,117.572c1.634-1.634,3.781-2.451,5.925-2.451c2.146,0,4.292,0.817,5.926,2.451
	c3.267,3.267,3.267,8.583,0,11.849l-79.516,79.517c-3.525,3.526-5.467,8.213-5.467,13.198c0,4.986,1.942,9.674,5.466,13.198
	c3.525,3.527,8.213,5.469,13.2,5.469c4.986,0,9.674-1.942,13.198-5.468l79.517-79.517c1.582-1.582,3.687-2.454,5.925-2.454
	c2.239,0,4.343,0.871,5.925,2.455c3.267,3.267,3.267,8.584,0,11.852l-79.516,79.516c-3.525,3.526-5.467,8.213-5.467,13.199
	c0,4.985,1.942,9.673,5.467,13.199c7.278,7.277,19.12,7.275,26.398,0l79.515-79.517c3.268-3.268,8.584-3.268,11.852,0
	C496.257,197.335,496.257,202.652,492.989,205.92z"/>
<path style="opacity:0.2;enable-background:new    ;" d="M144.974,473.588c-2.048,0-4.096-0.782-5.659-2.343
	c-3.125-3.126-3.125-8.193,0-11.319l45.598-45.598c3.125-3.124,8.193-3.124,11.317,0c3.125,3.126,3.125,8.193,0,11.319
	l-45.598,45.598C149.071,472.807,147.022,473.588,144.974,473.588z"/>
<g>
</g>
<g>
</g>
<g>
</g>
<g>
</g>
<g>
</g>
<g>
</g>
<g>
</g>
<g>
</g>
<g>
</g>
<g>
</g>
<g>
</g>
<g>
</g>
<g>
</g>
<g>
</g>
<g>
</g>
</svg>
